<mxfile modified="2024-01-30T09:14:28.757Z" agent="Mozilla/5.0 (Macintosh; Intel Mac OS X 10.15; rv:109.0) Gecko/20100101 Firefox/115.0" etag="0TxVmG2SseEGXFEvmM5I" version="21.7.4" type="device">
  <diagram name="Page-1" id="rwKB42pjnMoGIHPFNsBp">
    <mxGraphModel dx="2523" dy="565" grid="1" gridSize="10" guides="1" tooltips="1" connect="1" arrows="1" fold="1" page="1" pageScale="1" pageWidth="1169" pageHeight="827" math="0" shadow="0">
      <root>
        <mxCell id="0" />
        <mxCell id="1" parent="0" />
        <mxCell id="DDk-xno429yoRDsva6sx-2" value="Amazon Transcribe" style="sketch=0;points=[[0,0,0],[0.25,0,0],[0.5,0,0],[0.75,0,0],[1,0,0],[0,1,0],[0.25,1,0],[0.5,1,0],[0.75,1,0],[1,1,0],[0,0.25,0],[0,0.5,0],[0,0.75,0],[1,0.25,0],[1,0.5,0],[1,0.75,0]];outlineConnect=0;fontColor=#232F3E;fillColor=#01A88D;strokeColor=#ffffff;dashed=0;verticalLabelPosition=bottom;verticalAlign=top;align=center;html=1;fontSize=12;fontStyle=0;aspect=fixed;shape=mxgraph.aws4.resourceIcon;resIcon=mxgraph.aws4.transcribe;" parent="1" vertex="1">
          <mxGeometry x="430" y="405" width="78" height="78" as="geometry" />
        </mxCell>
        <mxCell id="DDk-xno429yoRDsva6sx-3" value="&lt;div&gt;Amazon Simple Storage Service&lt;br&gt;for storing&amp;nbsp;&lt;/div&gt;&lt;div&gt;videos, script, and summaries&lt;br&gt;&lt;/div&gt;" style="sketch=0;points=[[0,0,0],[0.25,0,0],[0.5,0,0],[0.75,0,0],[1,0,0],[0,1,0],[0.25,1,0],[0.5,1,0],[0.75,1,0],[1,1,0],[0,0.25,0],[0,0.5,0],[0,0.75,0],[1,0.25,0],[1,0.5,0],[1,0.75,0]];outlineConnect=0;fontColor=#232F3E;fillColor=#7AA116;strokeColor=#ffffff;dashed=0;verticalLabelPosition=bottom;verticalAlign=top;align=center;html=1;fontSize=12;fontStyle=0;aspect=fixed;shape=mxgraph.aws4.resourceIcon;resIcon=mxgraph.aws4.s3;" parent="1" vertex="1">
          <mxGeometry x="270" y="298" width="78" height="78" as="geometry" />
        </mxCell>
        <mxCell id="DDk-xno429yoRDsva6sx-4" value="Amazon Rekognition" style="sketch=0;points=[[0,0,0],[0.25,0,0],[0.5,0,0],[0.75,0,0],[1,0,0],[0,1,0],[0.25,1,0],[0.5,1,0],[0.75,1,0],[1,1,0],[0,0.25,0],[0,0.5,0],[0,0.75,0],[1,0.25,0],[1,0.5,0],[1,0.75,0]];outlineConnect=0;fontColor=#232F3E;fillColor=#01A88D;strokeColor=#ffffff;dashed=0;verticalLabelPosition=bottom;verticalAlign=top;align=center;html=1;fontSize=12;fontStyle=0;aspect=fixed;shape=mxgraph.aws4.resourceIcon;resIcon=mxgraph.aws4.rekognition_2;" parent="1" vertex="1">
          <mxGeometry x="430" y="186" width="78" height="78" as="geometry" />
        </mxCell>
        <mxCell id="DDk-xno429yoRDsva6sx-5" value="&lt;div&gt;Amazon Bedrock&lt;/div&gt;&lt;div&gt;with Anthropic&amp;nbsp;&lt;/div&gt;&lt;div&gt;Claude 2.1 model&lt;br&gt;&lt;/div&gt;" style="sketch=0;points=[[0,0,0],[0.25,0,0],[0.5,0,0],[0.75,0,0],[1,0,0],[0,1,0],[0.25,1,0],[0.5,1,0],[0.75,1,0],[1,1,0],[0,0.25,0],[0,0.5,0],[0,0.75,0],[1,0.25,0],[1,0.5,0],[1,0.75,0]];outlineConnect=0;fontColor=#232F3E;fillColor=#01A88D;strokeColor=#ffffff;dashed=0;verticalLabelPosition=bottom;verticalAlign=top;align=center;html=1;fontSize=12;fontStyle=0;aspect=fixed;shape=mxgraph.aws4.resourceIcon;resIcon=mxgraph.aws4.sagemaker;" parent="1" vertex="1">
          <mxGeometry x="204" y="71" width="78" height="78" as="geometry" />
        </mxCell>
        <mxCell id="10H77a8-TWQudCBzGG7n-26" style="edgeStyle=orthogonalEdgeStyle;rounded=0;orthogonalLoop=1;jettySize=auto;html=1;entryX=0;entryY=0.5;entryDx=0;entryDy=0;entryPerimeter=0;" edge="1" parent="1" source="DDk-xno429yoRDsva6sx-7" target="DDk-xno429yoRDsva6sx-5">
          <mxGeometry relative="1" as="geometry">
            <Array as="points">
              <mxPoint x="149" y="109" />
            </Array>
          </mxGeometry>
        </mxCell>
        <mxCell id="10H77a8-TWQudCBzGG7n-39" style="edgeStyle=orthogonalEdgeStyle;rounded=0;orthogonalLoop=1;jettySize=auto;html=1;entryX=0;entryY=0.5;entryDx=0;entryDy=0;entryPerimeter=0;" edge="1" parent="1" source="DDk-xno429yoRDsva6sx-7" target="DDk-xno429yoRDsva6sx-10">
          <mxGeometry relative="1" as="geometry">
            <Array as="points">
              <mxPoint x="150" y="238" />
            </Array>
          </mxGeometry>
        </mxCell>
        <mxCell id="DDk-xno429yoRDsva6sx-7" value="&lt;div&gt;AWS Amplify Hosting&lt;br&gt;for UI&lt;br&gt;&lt;/div&gt;" style="sketch=0;points=[[0,0,0],[0.25,0,0],[0.5,0,0],[0.75,0,0],[1,0,0],[0,1,0],[0.25,1,0],[0.5,1,0],[0.75,1,0],[1,1,0],[0,0.25,0],[0,0.5,0],[0,0.75,0],[1,0.25,0],[1,0.5,0],[1,0.75,0]];outlineConnect=0;fontColor=#232F3E;fillColor=#DD344C;strokeColor=#ffffff;dashed=0;verticalLabelPosition=bottom;verticalAlign=top;align=center;html=1;fontSize=12;fontStyle=0;aspect=fixed;shape=mxgraph.aws4.resourceIcon;resIcon=mxgraph.aws4.amplify;" parent="1" vertex="1">
          <mxGeometry x="110.03" y="298" width="78" height="78" as="geometry" />
        </mxCell>
        <mxCell id="DDk-xno429yoRDsva6sx-9" value="AWS Step Functions workflow" style="points=[[0,0],[0.25,0],[0.5,0],[0.75,0],[1,0],[1,0.25],[1,0.5],[1,0.75],[1,1],[0.75,1],[0.5,1],[0.25,1],[0,1],[0,0.75],[0,0.5],[0,0.25]];outlineConnect=0;gradientColor=none;html=1;whiteSpace=wrap;fontSize=12;fontStyle=0;container=1;pointerEvents=0;collapsible=0;recursiveResize=0;shape=mxgraph.aws4.group;grIcon=mxgraph.aws4.group_aws_step_functions_workflow;strokeColor=#CD2264;fillColor=none;verticalAlign=top;align=left;spacingLeft=30;fontColor=#CD2264;dashed=0;" parent="1" vertex="1">
          <mxGeometry x="540" y="192" width="280" height="258" as="geometry" />
        </mxCell>
        <mxCell id="DDk-xno429yoRDsva6sx-46" value="&lt;div&gt;AWS Lambda Function&lt;/div&gt;&lt;div&gt;for analyzing video &lt;br&gt;using generative AI&lt;br&gt;&lt;/div&gt;" style="sketch=0;outlineConnect=0;fontColor=#232F3E;gradientColor=none;fillColor=#ED7100;strokeColor=none;dashed=0;verticalLabelPosition=bottom;verticalAlign=top;align=center;html=1;fontSize=12;fontStyle=0;aspect=fixed;pointerEvents=1;shape=mxgraph.aws4.lambda_function;" parent="DDk-xno429yoRDsva6sx-9" vertex="1">
          <mxGeometry x="191" y="118" width="48" height="48" as="geometry" />
        </mxCell>
        <mxCell id="10H77a8-TWQudCBzGG7n-29" style="edgeStyle=orthogonalEdgeStyle;rounded=0;orthogonalLoop=1;jettySize=auto;html=1;" edge="1" parent="DDk-xno429yoRDsva6sx-9" source="10H77a8-TWQudCBzGG7n-16">
          <mxGeometry relative="1" as="geometry">
            <mxPoint x="190" y="142" as="targetPoint" />
            <Array as="points">
              <mxPoint x="150" y="59" />
              <mxPoint x="150" y="142" />
            </Array>
          </mxGeometry>
        </mxCell>
        <mxCell id="10H77a8-TWQudCBzGG7n-16" value="startLabelDetection" style="points=[[0.25,0,0],[0.5,0,0],[0.75,0,0],[1,0.25,0],[1,0.5,0],[1,0.75,0],[0.75,1,0],[0.5,1,0],[0.25,1,0],[0,0.75,0],[0,0.5,0],[0,0.25,0]];shape=mxgraph.bpmn.task;whiteSpace=wrap;rectStyle=rounded;size=10;html=1;container=1;expand=0;collapsible=0;taskMarker=abstract;" vertex="1" parent="DDk-xno429yoRDsva6sx-9">
          <mxGeometry x="20" y="38" width="122" height="42" as="geometry" />
        </mxCell>
        <mxCell id="10H77a8-TWQudCBzGG7n-30" style="edgeStyle=orthogonalEdgeStyle;rounded=0;orthogonalLoop=1;jettySize=auto;html=1;" edge="1" parent="DDk-xno429yoRDsva6sx-9" source="10H77a8-TWQudCBzGG7n-18" target="DDk-xno429yoRDsva6sx-46">
          <mxGeometry relative="1" as="geometry" />
        </mxCell>
        <mxCell id="10H77a8-TWQudCBzGG7n-18" value="startTextDetection" style="points=[[0.25,0,0],[0.5,0,0],[0.75,0,0],[1,0.25,0],[1,0.5,0],[1,0.75,0],[0.75,1,0],[0.5,1,0],[0.25,1,0],[0,0.75,0],[0,0.5,0],[0,0.25,0]];shape=mxgraph.bpmn.task;whiteSpace=wrap;rectStyle=rounded;size=10;html=1;container=1;expand=0;collapsible=0;taskMarker=abstract;" vertex="1" parent="DDk-xno429yoRDsva6sx-9">
          <mxGeometry x="20" y="121" width="122" height="42" as="geometry" />
        </mxCell>
        <mxCell id="10H77a8-TWQudCBzGG7n-32" style="edgeStyle=orthogonalEdgeStyle;rounded=0;orthogonalLoop=1;jettySize=auto;html=1;exitX=1;exitY=0.5;exitDx=0;exitDy=0;exitPerimeter=0;" edge="1" parent="DDk-xno429yoRDsva6sx-9" source="10H77a8-TWQudCBzGG7n-20" target="DDk-xno429yoRDsva6sx-46">
          <mxGeometry relative="1" as="geometry">
            <Array as="points">
              <mxPoint x="150" y="229" />
              <mxPoint x="150" y="142" />
            </Array>
          </mxGeometry>
        </mxCell>
        <mxCell id="10H77a8-TWQudCBzGG7n-20" value="startTranscriptionJob" style="points=[[0.25,0,0],[0.5,0,0],[0.75,0,0],[1,0.25,0],[1,0.5,0],[1,0.75,0],[0.75,1,0],[0.5,1,0],[0.25,1,0],[0,0.75,0],[0,0.5,0],[0,0.25,0]];shape=mxgraph.bpmn.task;whiteSpace=wrap;rectStyle=rounded;size=10;html=1;container=1;expand=0;collapsible=0;taskMarker=abstract;" vertex="1" parent="DDk-xno429yoRDsva6sx-9">
          <mxGeometry x="20" y="208" width="122" height="42" as="geometry" />
        </mxCell>
        <mxCell id="DDk-xno429yoRDsva6sx-10" value="Amazon Cognito" style="sketch=0;points=[[0,0,0],[0.25,0,0],[0.5,0,0],[0.75,0,0],[1,0,0],[0,1,0],[0.25,1,0],[0.5,1,0],[0.75,1,0],[1,1,0],[0,0.25,0],[0,0.5,0],[0,0.75,0],[1,0.25,0],[1,0.5,0],[1,0.75,0]];outlineConnect=0;fontColor=#232F3E;fillColor=#DD344C;strokeColor=#ffffff;dashed=0;verticalLabelPosition=bottom;verticalAlign=top;align=center;html=1;fontSize=12;fontStyle=0;aspect=fixed;shape=mxgraph.aws4.resourceIcon;resIcon=mxgraph.aws4.cognito;" parent="1" vertex="1">
          <mxGeometry x="204" y="199" width="78" height="78" as="geometry" />
        </mxCell>
        <mxCell id="10H77a8-TWQudCBzGG7n-12" style="edgeStyle=orthogonalEdgeStyle;rounded=0;orthogonalLoop=1;jettySize=auto;html=1;" edge="1" parent="1" source="DDk-xno429yoRDsva6sx-12" target="DDk-xno429yoRDsva6sx-9">
          <mxGeometry relative="1" as="geometry">
            <Array as="points">
              <mxPoint x="540" y="337" />
              <mxPoint x="540" y="337" />
            </Array>
          </mxGeometry>
        </mxCell>
        <mxCell id="DDk-xno429yoRDsva6sx-12" value="Amazon EventBridge" style="sketch=0;points=[[0,0,0],[0.25,0,0],[0.5,0,0],[0.75,0,0],[1,0,0],[0,1,0],[0.25,1,0],[0.5,1,0],[0.75,1,0],[1,1,0],[0,0.25,0],[0,0.5,0],[0,0.75,0],[1,0.25,0],[1,0.5,0],[1,0.75,0]];outlineConnect=0;fontColor=#232F3E;fillColor=#E7157B;strokeColor=#ffffff;dashed=0;verticalLabelPosition=bottom;verticalAlign=top;align=center;html=1;fontSize=12;fontStyle=0;aspect=fixed;shape=mxgraph.aws4.resourceIcon;resIcon=mxgraph.aws4.eventbridge;" parent="1" vertex="1">
          <mxGeometry x="430" y="298" width="78" height="78" as="geometry" />
        </mxCell>
        <mxCell id="DDk-xno429yoRDsva6sx-23" style="edgeStyle=orthogonalEdgeStyle;rounded=0;orthogonalLoop=1;jettySize=auto;html=1;exitX=1;exitY=0.5;exitDx=0;exitDy=0;exitPerimeter=0;entryX=0;entryY=0.5;entryDx=0;entryDy=0;entryPerimeter=0;" parent="1" source="DDk-xno429yoRDsva6sx-15" edge="1">
          <mxGeometry relative="1" as="geometry">
            <mxPoint x="358" y="119" as="targetPoint" />
          </mxGeometry>
        </mxCell>
        <mxCell id="DDk-xno429yoRDsva6sx-25" style="edgeStyle=orthogonalEdgeStyle;rounded=0;orthogonalLoop=1;jettySize=auto;html=1;exitX=1;exitY=0.5;exitDx=0;exitDy=0;exitPerimeter=0;entryX=0;entryY=0.5;entryDx=0;entryDy=0;entryPerimeter=0;" parent="1" source="DDk-xno429yoRDsva6sx-7" target="DDk-xno429yoRDsva6sx-3" edge="1">
          <mxGeometry relative="1" as="geometry">
            <mxPoint x="358.0000000000002" y="399" as="targetPoint" />
          </mxGeometry>
        </mxCell>
        <mxCell id="DDk-xno429yoRDsva6sx-35" style="edgeStyle=orthogonalEdgeStyle;rounded=0;orthogonalLoop=1;jettySize=auto;html=1;exitX=1;exitY=0.5;exitDx=0;exitDy=0;exitPerimeter=0;entryX=0;entryY=0.5;entryDx=0;entryDy=0;entryPerimeter=0;" parent="1" source="DDk-xno429yoRDsva6sx-3" target="DDk-xno429yoRDsva6sx-12" edge="1">
          <mxGeometry relative="1" as="geometry" />
        </mxCell>
        <mxCell id="10H77a8-TWQudCBzGG7n-3" style="edgeStyle=orthogonalEdgeStyle;rounded=0;orthogonalLoop=1;jettySize=auto;html=1;entryX=0;entryY=0.5;entryDx=0;entryDy=0;entryPerimeter=0;" edge="1" parent="1" source="10H77a8-TWQudCBzGG7n-1" target="DDk-xno429yoRDsva6sx-7">
          <mxGeometry relative="1" as="geometry">
            <mxPoint x="68.03" y="370" as="targetPoint" />
          </mxGeometry>
        </mxCell>
        <mxCell id="10H77a8-TWQudCBzGG7n-7" style="edgeStyle=orthogonalEdgeStyle;rounded=0;orthogonalLoop=1;jettySize=auto;html=1;entryX=0;entryY=0.5;entryDx=0;entryDy=0;entryPerimeter=0;" edge="1" parent="1" source="10H77a8-TWQudCBzGG7n-1" target="DDk-xno429yoRDsva6sx-3">
          <mxGeometry relative="1" as="geometry">
            <Array as="points">
              <mxPoint x="70" y="337" />
              <mxPoint x="70" y="490" />
              <mxPoint x="220" y="490" />
              <mxPoint x="220" y="337" />
            </Array>
          </mxGeometry>
        </mxCell>
        <mxCell id="10H77a8-TWQudCBzGG7n-1" value="" style="sketch=0;outlineConnect=0;fontColor=#232F3E;gradientColor=none;fillColor=#232F3D;strokeColor=none;dashed=0;verticalLabelPosition=bottom;verticalAlign=top;align=center;html=1;fontSize=12;fontStyle=0;aspect=fixed;pointerEvents=1;shape=mxgraph.aws4.user;" vertex="1" parent="1">
          <mxGeometry x="-76" y="298" width="78" height="78" as="geometry" />
        </mxCell>
        <mxCell id="10H77a8-TWQudCBzGG7n-2" value="Video admin" style="text;html=1;strokeColor=none;fillColor=none;align=center;verticalAlign=middle;whiteSpace=wrap;rounded=0;" vertex="1" parent="1">
          <mxGeometry x="-61" y="380" width="60" height="30" as="geometry" />
        </mxCell>
        <mxCell id="10H77a8-TWQudCBzGG7n-4" value="&lt;div align=&quot;left&quot;&gt;Upload &amp;amp; view videos, read summaries, and chat about the video&lt;br&gt;&lt;/div&gt;" style="text;html=1;strokeColor=none;fillColor=none;align=left;verticalAlign=middle;whiteSpace=wrap;rounded=0;" vertex="1" parent="1">
          <mxGeometry x="-3" y="290" width="112" height="30" as="geometry" />
        </mxCell>
        <mxCell id="10H77a8-TWQudCBzGG7n-8" value="&lt;div align=&quot;left&quot;&gt;Upload &amp;amp; access videos via other methods e.g. SFTP, CLI&lt;br&gt;&lt;/div&gt;" style="text;html=1;strokeColor=none;fillColor=none;align=left;verticalAlign=middle;whiteSpace=wrap;rounded=0;" vertex="1" parent="1">
          <mxGeometry x="79.03" y="450" width="140" height="30" as="geometry" />
        </mxCell>
        <mxCell id="10H77a8-TWQudCBzGG7n-9" value="Auth" style="text;html=1;strokeColor=none;fillColor=none;align=center;verticalAlign=middle;whiteSpace=wrap;rounded=0;" vertex="1" parent="1">
          <mxGeometry x="146" y="212" width="60" height="30" as="geometry" />
        </mxCell>
        <mxCell id="10H77a8-TWQudCBzGG7n-10" value="&lt;div align=&quot;left&quot;&gt;Trigger on video upload&lt;/div&gt;" style="text;html=1;strokeColor=none;fillColor=none;align=left;verticalAlign=middle;whiteSpace=wrap;rounded=0;" vertex="1" parent="1">
          <mxGeometry x="360" y="298" width="60" height="30" as="geometry" />
        </mxCell>
        <mxCell id="10H77a8-TWQudCBzGG7n-22" style="edgeStyle=orthogonalEdgeStyle;rounded=0;orthogonalLoop=1;jettySize=auto;html=1;entryX=1;entryY=0.5;entryDx=0;entryDy=0;entryPerimeter=0;" edge="1" parent="1" source="DDk-xno429yoRDsva6sx-46" target="DDk-xno429yoRDsva6sx-5">
          <mxGeometry relative="1" as="geometry">
            <Array as="points">
              <mxPoint x="754" y="109" />
            </Array>
          </mxGeometry>
        </mxCell>
        <mxCell id="10H77a8-TWQudCBzGG7n-27" value="Chat e.g. &quot;&lt;i&gt;Which part of the video is funny?&lt;/i&gt;&quot;" style="text;html=1;strokeColor=none;fillColor=none;align=left;verticalAlign=middle;whiteSpace=wrap;rounded=0;" vertex="1" parent="1">
          <mxGeometry x="20" y="130" width="126" height="30" as="geometry" />
        </mxCell>
        <mxCell id="10H77a8-TWQudCBzGG7n-28" value="&lt;div align=&quot;left&quot;&gt;Generate summary&lt;br&gt;&lt;/div&gt;" style="text;html=1;strokeColor=none;fillColor=none;align=left;verticalAlign=middle;whiteSpace=wrap;rounded=0;" vertex="1" parent="1">
          <mxGeometry x="480" y="80" width="60" height="30" as="geometry" />
        </mxCell>
        <mxCell id="10H77a8-TWQudCBzGG7n-35" style="edgeStyle=orthogonalEdgeStyle;rounded=0;orthogonalLoop=1;jettySize=auto;html=1;entryX=1;entryY=0.5;entryDx=0;entryDy=0;entryPerimeter=0;" edge="1" parent="1" source="10H77a8-TWQudCBzGG7n-16" target="DDk-xno429yoRDsva6sx-4">
          <mxGeometry relative="1" as="geometry">
            <Array as="points">
              <mxPoint x="550" y="251" />
              <mxPoint x="550" y="225" />
            </Array>
          </mxGeometry>
        </mxCell>
        <mxCell id="10H77a8-TWQudCBzGG7n-36" style="edgeStyle=orthogonalEdgeStyle;rounded=0;orthogonalLoop=1;jettySize=auto;html=1;entryX=1;entryY=0.5;entryDx=0;entryDy=0;entryPerimeter=0;" edge="1" parent="1" source="10H77a8-TWQudCBzGG7n-18" target="DDk-xno429yoRDsva6sx-4">
          <mxGeometry relative="1" as="geometry">
            <Array as="points">
              <mxPoint x="550" y="334" />
              <mxPoint x="550" y="225" />
            </Array>
          </mxGeometry>
        </mxCell>
        <mxCell id="10H77a8-TWQudCBzGG7n-37" style="edgeStyle=orthogonalEdgeStyle;rounded=0;orthogonalLoop=1;jettySize=auto;html=1;" edge="1" parent="1" source="10H77a8-TWQudCBzGG7n-20" target="DDk-xno429yoRDsva6sx-2">
          <mxGeometry relative="1" as="geometry">
            <Array as="points">
              <mxPoint x="550" y="421" />
              <mxPoint x="550" y="444" />
            </Array>
          </mxGeometry>
        </mxCell>
        <mxCell id="10H77a8-TWQudCBzGG7n-38" style="edgeStyle=orthogonalEdgeStyle;rounded=0;orthogonalLoop=1;jettySize=auto;html=1;entryX=0.5;entryY=0;entryDx=0;entryDy=0;entryPerimeter=0;" edge="1" parent="1" source="DDk-xno429yoRDsva6sx-46" target="DDk-xno429yoRDsva6sx-3">
          <mxGeometry relative="1" as="geometry">
            <Array as="points">
              <mxPoint x="755" y="110" />
              <mxPoint x="309" y="110" />
            </Array>
          </mxGeometry>
        </mxCell>
        <mxCell id="10H77a8-TWQudCBzGG7n-40" value="&lt;div align=&quot;left&quot;&gt;Store summary &amp;amp; extracted script&lt;/div&gt;" style="text;html=1;strokeColor=none;fillColor=none;align=left;verticalAlign=middle;whiteSpace=wrap;rounded=0;" vertex="1" parent="1">
          <mxGeometry x="320" y="131" width="100" height="30" as="geometry" />
        </mxCell>
      </root>
    </mxGraphModel>
  </diagram>
</mxfile>
